<svg width="20" height="21" viewBox="0 0 20 21" fill="none" xmlns="http://www.w3.org/2000/svg">
<g clip-path="url(#clip0_4_136)">
<path d="M15.2201 0.1875C16.216 0.1875 17.0512 1.00051 17.0833 2.04116V18.3013C17.0833 19.342 16.2481 20.1875 15.2201 20.1875H4.77985C3.75188 20.1875 2.91666 19.342 2.91666 18.3013V2.04116C2.91666 1.00051 3.75188 0.1875 4.74772 0.1875H15.2201ZM15.188 1.29319H4.74772C4.33011 1.29319 4.00887 1.65091 4.00887 2.04116V18.3013C4.00887 18.7241 4.36223 19.0493 4.74772 19.0493H15.188C15.6056 19.0493 15.9269 18.6916 15.9269 18.3013V2.04116C15.9269 1.61839 15.5735 1.29319 15.188 1.29319ZM13.4854 8.87043C14.0637 8.87043 14.5777 9.35823 14.5777 9.97612C14.5777 10.594 14.0958 11.0818 13.4854 11.0818C12.8751 11.0818 12.3932 10.594 12.3932 9.97612C12.3932 9.35823 12.8751 8.87043 13.4854 8.87043Z" fill="#45525B"/>
</g>
<defs>
<clipPath id="clip0_4_136">
<rect width="20" height="20" fill="white" transform="translate(0 0.1875)"/>
</clipPath>
</defs>
</svg>
